<svg width="11" height="14" viewBox="0 0 11 14" fill="none" xmlns="http://www.w3.org/2000/svg">
<path fill-rule="evenodd" clip-rule="evenodd" d="M10.5 12.2579V6.93974C10.5 6.4504 10.1267 6.05338 9.66667 6.05338H9.38889V4.28065C9.38889 2.00934 7.63542 0.144287 5.5 0.144287C3.36458 0.144287 1.61111 2.00934 1.61111 4.28065V6.05338H1.33333C0.873264 6.05338 0.5 6.4504 0.5 6.93974V12.2579C0.5 12.7473 0.873264 13.1443 1.33333 13.1443H9.66667C10.1267 13.1443 10.5 12.7473 10.5 12.2579ZM7.72222 4.28065V6.05338H3.27778V4.28065C3.27778 2.9788 4.27604 1.91701 5.5 1.91701C6.72396 1.91701 7.72222 2.9788 7.72222 4.28065Z" fill="#7B8091"/>
</svg>
